<svg width="50" height="54" viewBox="0 0 50 54" fill="none" xmlns="http://www.w3.org/2000/svg">
<path d="M24.5996 38.8003V42.8403" stroke="#F74F25" stroke-width="1.2" stroke-linecap="round" stroke-linejoin="round"/>
<path d="M24.5996 18.7603V22.5203" stroke="#F74F25" stroke-width="1.2" stroke-linecap="round" stroke-linejoin="round"/>
<path d="M24.5996 52.6801C38.5996 52.6801 48.5996 47.7201 48.5996 36.6801C48.5996 24.6801 42.5996 16.6801 30.5996 10.6801L35.3196 4.6001C35.5594 4.20118 35.6895 3.74596 35.6966 3.28057C35.7038 2.81519 35.5878 2.35619 35.3603 1.95009C35.1329 1.54399 34.8022 1.20523 34.4017 0.968151C34.0011 0.731071 33.545 0.604097 33.0796 0.600098H16.1196C15.6542 0.604097 15.1981 0.731071 14.7976 0.968151C14.397 1.20523 14.0663 1.54399 13.8389 1.95009C13.6115 2.35619 13.4955 2.81519 13.5026 3.28057C13.5098 3.74596 13.6398 4.20118 13.8796 4.6001L18.5996 10.7201C6.59961 16.7601 0.599609 24.7601 0.599609 36.7601C0.599609 47.7201 10.5996 52.6801 24.5996 52.6801Z" fill="#FDC8BB" stroke="#F74F25" stroke-width="1.2" stroke-linecap="round" stroke-linejoin="round"/>
<path d="M20.6018 36.9596C21.0899 37.539 21.7041 37.9988 22.3975 38.3039C23.0909 38.609 23.8449 38.7512 24.6018 38.7196C25.7586 38.7985 26.901 38.4258 27.7887 37.6798C28.6764 36.9338 29.2402 35.8728 29.3618 34.7196C29.2402 33.5665 28.6764 32.5054 27.7887 31.7595C26.901 31.0135 25.7586 30.6408 24.6018 30.7196C23.445 30.7985 22.3026 30.4258 21.4149 29.6798C20.5272 28.9338 19.9633 27.8728 19.8418 26.7196C19.9536 25.5625 20.5148 24.4953 21.4048 23.7474C22.2948 22.9995 23.4427 22.6305 24.6018 22.7196C25.3453 22.6741 26.0897 22.794 26.7814 23.0707C27.473 23.3474 28.0947 23.7739 28.6018 24.3196" fill="#FEEDE9"/>
<path d="M20.6018 36.9596C21.0899 37.539 21.7041 37.9988 22.3975 38.3039C23.0909 38.609 23.8449 38.7512 24.6018 38.7196C25.7586 38.7985 26.901 38.4258 27.7887 37.6798C28.6764 36.9338 29.2402 35.8728 29.3618 34.7196C29.2402 33.5665 28.6764 32.5054 27.7887 31.7595C26.901 31.0135 25.7586 30.6408 24.6018 30.7196C23.445 30.7985 22.3026 30.4258 21.4149 29.6798C20.5272 28.9338 19.9633 27.8728 19.8418 26.7196C19.9536 25.5625 20.5148 24.4953 21.4048 23.7474C22.2948 22.9995 23.4427 22.6305 24.6018 22.7196C25.3453 22.6741 26.0897 22.794 26.7814 23.0707C27.473 23.3474 28.0947 23.7739 28.6018 24.3196" stroke="#F74F25" stroke-width="1.2" stroke-linecap="round" stroke-linejoin="round"/>
</svg>
