<svg width="54" height="54" viewBox="0 0 54 54" fill="none" xmlns="http://www.w3.org/2000/svg">
<path d="M4.59961 8.6001C3.53874 8.6001 2.52133 9.02152 1.77118 9.77167C1.02104 10.5218 0.599609 11.5392 0.599609 12.6001V48.6001C0.599609 49.661 1.02104 50.6784 1.77118 51.4285C2.52133 52.1787 3.53874 52.6001 4.59961 52.6001H48.5996C49.6605 52.6001 50.6779 52.1787 51.428 51.4285C52.1782 50.6784 52.5996 49.661 52.5996 48.6001V12.6001C52.5996 11.5392 52.1782 10.5218 51.428 9.77167C50.6779 9.02152 49.6605 8.6001 48.5996 8.6001H40.5996" fill="#FDC8BB"/>
<path d="M4.59961 8.6001C3.53874 8.6001 2.52133 9.02152 1.77118 9.77167C1.02104 10.5218 0.599609 11.5392 0.599609 12.6001V48.6001C0.599609 49.661 1.02104 50.6784 1.77118 51.4285C2.52133 52.1787 3.53874 52.6001 4.59961 52.6001H48.5996C49.6605 52.6001 50.6779 52.1787 51.428 51.4285C52.1782 50.6784 52.5996 49.661 52.5996 48.6001V12.6001C52.5996 11.5392 52.1782 10.5218 51.428 9.77167C50.6779 9.02152 49.6605 8.6001 48.5996 8.6001H40.5996" stroke="#F74F25" stroke-width="1.2" stroke-linecap="round" stroke-linejoin="round"/>
<path d="M12.5996 0.600098V16.6001" stroke="#F74F25" stroke-width="1.2" stroke-linecap="round" stroke-linejoin="round"/>
<path d="M40.5996 0.600098V16.6001" stroke="#F74F25" stroke-width="1.2" stroke-linecap="round" stroke-linejoin="round"/>
<path d="M12.5996 8.6001H32.5996" stroke="#F74F25" stroke-width="1.2" stroke-linecap="round" stroke-linejoin="round"/>
<path d="M12.5996 30.6001C13.7042 30.6001 14.5996 29.7047 14.5996 28.6001C14.5996 27.4955 13.7042 26.6001 12.5996 26.6001C11.495 26.6001 10.5996 27.4955 10.5996 28.6001C10.5996 29.7047 11.495 30.6001 12.5996 30.6001Z" stroke="#F74F25" stroke-width="1.2" stroke-linecap="round" stroke-linejoin="round"/>
<path d="M26.5996 30.6001C27.7042 30.6001 28.5996 29.7047 28.5996 28.6001C28.5996 27.4955 27.7042 26.6001 26.5996 26.6001C25.495 26.6001 24.5996 27.4955 24.5996 28.6001C24.5996 29.7047 25.495 30.6001 26.5996 30.6001Z" stroke="#F74F25" stroke-width="1.2" stroke-linecap="round" stroke-linejoin="round"/>
<path d="M40.5996 30.6001C41.7042 30.6001 42.5996 29.7047 42.5996 28.6001C42.5996 27.4955 41.7042 26.6001 40.5996 26.6001C39.495 26.6001 38.5996 27.4955 38.5996 28.6001C38.5996 29.7047 39.495 30.6001 40.5996 30.6001Z" stroke="#F74F25" stroke-width="1.2" stroke-linecap="round" stroke-linejoin="round"/>
<path d="M12.5996 42.6001C13.7042 42.6001 14.5996 41.7047 14.5996 40.6001C14.5996 39.4955 13.7042 38.6001 12.5996 38.6001C11.495 38.6001 10.5996 39.4955 10.5996 40.6001C10.5996 41.7047 11.495 42.6001 12.5996 42.6001Z" stroke="#F74F25" stroke-width="1.2" stroke-linecap="round" stroke-linejoin="round"/>
</svg>
