<svg width="53" height="54" viewBox="0 0 53 54" fill="none" xmlns="http://www.w3.org/2000/svg">
<path d="M51.5096 25.0801C51.578 24.5218 51.5278 23.9553 51.3624 23.4177C51.197 22.8801 50.92 22.3834 50.5496 21.9601C50.1748 21.5334 49.7134 21.1915 49.1961 20.957C48.6788 20.7225 48.1176 20.6008 47.5496 20.6001H4.58962C4.02168 20.6008 3.4604 20.7225 2.94313 20.957C2.42586 21.1915 1.96446 21.5334 1.58962 21.9601C1.21922 22.3834 0.942279 22.8801 0.77686 23.4177C0.611441 23.9553 0.561267 24.5218 0.629615 25.0801L3.62962 49.0801C3.74752 50.0557 4.22046 50.9538 4.95821 51.6031C5.69597 52.2523 6.6469 52.6072 7.62962 52.6001H44.5896C45.5723 52.6072 46.5233 52.2523 47.261 51.6031C47.9988 50.9538 48.4717 50.0557 48.5896 49.0801L51.5096 25.0801Z" stroke="#F74F25" stroke-width="1.2" stroke-linecap="round" stroke-linejoin="round"/>
<path d="M8.06964 20.6001V18.6001C8.06964 13.8262 9.96606 9.24783 13.3417 5.87218C16.7174 2.49652 21.2957 0.600098 26.0696 0.600098C30.8435 0.600098 35.4219 2.49652 38.7976 5.87218C42.1732 9.24783 44.0696 13.8262 44.0696 18.6001V20.6001" fill="#FDC8BB"/>
<path d="M8.06964 20.6001V18.6001C8.06964 13.8262 9.96606 9.24783 13.3417 5.87218C16.7174 2.49652 21.2957 0.600098 26.0696 0.600098C30.8435 0.600098 35.4219 2.49652 38.7976 5.87218C42.1732 9.24783 44.0696 13.8262 44.0696 18.6001V20.6001" stroke="#F74F25" stroke-width="1.2" stroke-linecap="round" stroke-linejoin="round"/>
<path d="M18.0696 32.6001V40.6001" stroke="#F74F25" stroke-width="1.2" stroke-linecap="round" stroke-linejoin="round"/>
<path d="M34.0696 32.6001V40.6001" stroke="#F74F25" stroke-width="1.2" stroke-linecap="round" stroke-linejoin="round"/>
</svg>
