<svg width="24" height="24" viewBox="0 0 24 24" fill="none" xmlns="http://www.w3.org/2000/svg">
<path d="M6.25401 7.54688L6.68258 9.26116" stroke="#F74F25" stroke-width="1.37143" stroke-linecap="round" stroke-linejoin="round"/>
<path d="M12.254 7.54688L11.8254 9.26116" stroke="#F74F25" stroke-width="1.37143" stroke-linecap="round" stroke-linejoin="round"/>
<path d="M2.94543 12.6886H16.9683L18.6826 4.11719H1.53972C1.41435 4.11765 1.29061 4.1456 1.17723 4.19908C1.06384 4.25255 0.963563 4.33025 0.883467 4.4267C0.803371 4.52314 0.745405 4.63598 0.713657 4.75725C0.681908 4.87853 0.677149 5.0053 0.699716 5.12862L2.10543 11.9858C2.13822 12.184 2.241 12.364 2.39512 12.4929C2.54925 12.6219 2.74449 12.6913 2.94543 12.6886V12.6886Z" stroke="#F74F25" stroke-width="1.37143" stroke-linecap="round" stroke-linejoin="round"/>
<path d="M18.6826 4.11607L19.4026 1.37321C19.4421 1.17961 19.5473 1.0056 19.7004 0.880648C19.8534 0.755691 20.045 0.68746 20.2426 0.6875H22.9683" stroke="#F74F25" stroke-width="1.37143" stroke-linecap="round" stroke-linejoin="round"/>
<path d="M16.9683 12.6875L16.2483 16.2875C16.2088 16.4811 16.1036 16.6551 15.9505 16.7801C15.7974 16.905 15.6059 16.9733 15.4083 16.9732H4.96828" stroke="#F74F25" stroke-width="1.37143" stroke-linecap="round" stroke-linejoin="round"/>
<path d="M5.82543 22.9721C6.29881 22.9721 6.68257 22.5883 6.68257 22.115C6.68257 21.6416 6.29881 21.2578 5.82543 21.2578C5.35204 21.2578 4.96828 21.6416 4.96828 22.115C4.96828 22.5883 5.35204 22.9721 5.82543 22.9721Z" stroke="#F74F25" stroke-width="1.37143" stroke-linecap="round" stroke-linejoin="round"/>
<path d="M14.3969 22.9721C14.8702 22.9721 15.254 22.5883 15.254 22.115C15.254 21.6416 14.8702 21.2578 14.3969 21.2578C13.9235 21.2578 13.5397 21.6416 13.5397 22.115C13.5397 22.5883 13.9235 22.9721 14.3969 22.9721Z" stroke="#F74F25" stroke-width="1.37143" stroke-linecap="round" stroke-linejoin="round"/>
</svg>
