<svg width="22" height="24" viewBox="0 0 22 24" fill="none" xmlns="http://www.w3.org/2000/svg">
<path d="M10.9712 17.0566V18.7881" stroke="#F74F25" stroke-width="1.37143" stroke-linecap="round" stroke-linejoin="round"/>
<path d="M10.9712 8.46875V10.0802" stroke="#F74F25" stroke-width="1.37143" stroke-linecap="round" stroke-linejoin="round"/>
<path d="M10.9713 23.0055C16.9713 23.0055 21.257 20.8798 21.257 16.1484C21.257 11.0055 18.6855 7.57698 13.5427 5.00555L15.5655 2.39983C15.6683 2.22887 15.7241 2.03377 15.7271 1.83432C15.7302 1.63487 15.6805 1.43816 15.583 1.26411C15.4855 1.09007 15.3438 0.94489 15.1721 0.843284C15.0005 0.741678 14.805 0.687261 14.6055 0.685547H7.33698C7.13751 0.687261 6.94204 0.741678 6.77038 0.843284C6.59873 0.94489 6.45698 1.09007 6.35952 1.26411C6.26205 1.43816 6.21234 1.63487 6.2154 1.83432C6.21847 2.03377 6.27421 2.22887 6.37698 2.39983L8.39983 5.02269C3.25698 7.61126 0.685547 11.0398 0.685547 16.1827C0.685547 20.8798 4.97126 23.0055 10.9713 23.0055Z" stroke="#F74F25" stroke-width="1.37143" stroke-linecap="round" stroke-linejoin="round"/>
<path d="M9.25784 16.2686C9.46701 16.5169 9.73028 16.714 10.0274 16.8447C10.3246 16.9755 10.6478 17.0364 10.9721 17.0229C11.4679 17.0567 11.9575 16.897 12.3379 16.5773C12.7184 16.2576 12.96 15.8028 13.0121 15.3086C12.96 14.8144 12.7184 14.3597 12.3379 14.04C11.9575 13.7203 11.4679 13.5605 10.9721 13.5943C10.4763 13.6281 9.98677 13.4684 9.60633 13.1487C9.22589 12.829 8.98422 12.3742 8.93213 11.8801C8.98004 11.3841 9.22054 10.9268 9.60198 10.6062C9.98342 10.2857 10.4754 10.1275 10.9721 10.1658C11.2908 10.1463 11.6098 10.1977 11.9062 10.3162C12.2027 10.4348 12.4691 10.6176 12.6864 10.8515" stroke="#F74F25" stroke-width="1.37143" stroke-linecap="round" stroke-linejoin="round"/>
</svg>
