<svg width="24" height="20" viewBox="0 0 24 20" fill="none" xmlns="http://www.w3.org/2000/svg">
<path d="M16.9714 0.6875H2.40002C1.45324 0.6875 0.68573 1.45501 0.68573 2.40179V12.6875C0.68573 13.6343 1.45324 14.4018 2.40002 14.4018H16.9714C17.9182 14.4018 18.6857 13.6343 18.6857 12.6875V2.40179C18.6857 1.45501 17.9182 0.6875 16.9714 0.6875Z" stroke="#F74F25" stroke-width="1.37143" stroke-linecap="round" stroke-linejoin="round"/>
<path d="M9.68575 10.1194C11.1059 10.1194 12.2572 8.96815 12.2572 7.54799C12.2572 6.12783 11.1059 4.97656 9.68575 4.97656C8.26559 4.97656 7.11432 6.12783 7.11432 7.54799C7.11432 8.96815 8.26559 10.1194 9.68575 10.1194Z" stroke="#F74F25" stroke-width="1.37143" stroke-linecap="round" stroke-linejoin="round"/>
<path d="M5.82861 18.6842H21.2572C21.7118 18.6842 22.1479 18.5035 22.4694 18.182C22.7909 17.8606 22.9715 17.4245 22.9715 16.9699V8.39844" stroke="#F74F25" stroke-width="1.37143" stroke-linecap="round" stroke-linejoin="round"/>
</svg>
