<svg width="24" height="24" viewBox="0 0 24 24" fill="none" xmlns="http://www.w3.org/2000/svg">
<path d="M15.2571 12.7009C19.5176 12.7009 22.9714 11.1659 22.9714 9.27232C22.9714 7.37877 19.5176 5.84375 15.2571 5.84375C10.9967 5.84375 7.54285 7.37877 7.54285 9.27232C7.54285 11.1659 10.9967 12.7009 15.2571 12.7009Z" stroke="#F74F25" stroke-width="1.37143" stroke-linecap="round" stroke-linejoin="round"/>
<path d="M7.54285 9.27344V19.5592C7.54285 21.4449 10.9714 22.9877 15.2571 22.9877C19.5429 22.9877 22.9714 21.4449 22.9714 19.5592V9.27344" stroke="#F74F25" stroke-width="1.37143" stroke-linecap="round" stroke-linejoin="round"/>
<path d="M22.9714 14.4141C22.9714 16.2998 19.5429 17.8426 15.2571 17.8426C10.9714 17.8426 7.54285 16.2998 7.54285 14.4141" stroke="#F74F25" stroke-width="1.37143" stroke-linecap="round" stroke-linejoin="round"/>
<path d="M15.0857 2.41683C13.0826 1.18062 10.7509 0.582744 8.4 0.702545C4.13143 0.702545 0.685715 2.2454 0.685715 4.13112C0.685715 5.14255 1.68 6.05112 3.25714 6.70255" stroke="#F74F25" stroke-width="1.37143" stroke-linecap="round" stroke-linejoin="round"/>
<path d="M3.25714 16.99C1.68 16.3385 0.685715 15.43 0.685715 14.4185V4.13281" stroke="#F74F25" stroke-width="1.37143" stroke-linecap="round" stroke-linejoin="round"/>
<path d="M3.25714 11.8449C1.68 11.1934 0.685715 10.2849 0.685715 9.27344" stroke="#F74F25" stroke-width="1.37143" stroke-linecap="round" stroke-linejoin="round"/>
</svg>
