<svg width="54" height="54" viewBox="0 0 54 54" fill="none" xmlns="http://www.w3.org/2000/svg">
<path d="M34.5996 28.6353C44.5407 28.6353 52.5996 25.0535 52.5996 20.6353C52.5996 16.217 44.5407 12.6353 34.5996 12.6353C24.6585 12.6353 16.5996 16.217 16.5996 20.6353C16.5996 25.0535 24.6585 28.6353 34.5996 28.6353Z" fill="#FDC8BB" stroke="#F74F25" stroke-width="1.2" stroke-linecap="round" stroke-linejoin="round"/>
<path d="M16.5996 20.6353V44.6353C16.5996 49.0353 24.5996 52.6353 34.5996 52.6353C44.5996 52.6353 52.5996 49.0353 52.5996 44.6353V20.6353" fill="#FEEDE9"/>
<path d="M16.5996 20.6353V44.6353C16.5996 49.0353 24.5996 52.6353 34.5996 52.6353C44.5996 52.6353 52.5996 49.0353 52.5996 44.6353V20.6353" stroke="#F74F25" stroke-width="1.2" stroke-linecap="round" stroke-linejoin="round"/>
<path d="M52.5996 32.6353C52.5996 37.0353 44.5996 40.6353 34.5996 40.6353C24.5996 40.6353 16.5996 37.0353 16.5996 32.6353" stroke="#F74F25" stroke-width="1.2" stroke-linecap="round" stroke-linejoin="round"/>
<path d="M34.1996 4.6352C29.5256 1.75071 24.0849 0.355667 18.5996 0.635203C8.63961 0.635203 0.599609 4.2352 0.599609 8.6352C0.599609 10.9952 2.91961 13.1152 6.59961 14.6352" stroke="#F74F25" stroke-width="1.2" stroke-linecap="round" stroke-linejoin="round"/>
<path d="M6.59961 38.6353C2.91961 37.1153 0.599609 34.9953 0.599609 32.6353V8.63525" stroke="#F74F25" stroke-width="1.2" stroke-linecap="round" stroke-linejoin="round"/>
<path d="M6.59961 26.6353C2.91961 25.1153 0.599609 22.9953 0.599609 20.6353" stroke="#F74F25" stroke-width="1.2" stroke-linecap="round" stroke-linejoin="round"/>
</svg>
