<svg width="53" height="54" viewBox="0 0 53 54" fill="none" xmlns="http://www.w3.org/2000/svg">
<path d="M32.1541 18.6858C34.3632 18.6858 36.1541 16.8949 36.1541 14.6858C36.1541 12.4767 34.3632 10.6858 32.1541 10.6858C29.9449 10.6858 28.1541 12.4767 28.1541 14.6858C28.1541 16.8949 29.9449 18.6858 32.1541 18.6858Z" fill="#FDC8BB" stroke="#F74F25" stroke-width="1.37143" stroke-linecap="round" stroke-linejoin="round"/>
<path d="M16.1541 38.6858C17.2586 38.6858 18.1541 37.7904 18.1541 36.6858C18.1541 35.5812 17.2586 34.6858 16.1541 34.6858C15.0495 34.6858 14.1541 35.5812 14.1541 36.6858C14.1541 37.7904 15.0495 38.6858 16.1541 38.6858Z" fill="#FDC8BB" stroke="#F74F25" stroke-width="1.37143" stroke-linecap="round" stroke-linejoin="round"/>
<path d="M16.1541 24.6858C18.3632 24.6858 20.1541 22.8949 20.1541 20.6858C20.1541 18.4767 18.3632 16.6858 16.1541 16.6858C13.9449 16.6858 12.1541 18.4767 12.1541 20.6858C12.1541 22.8949 13.9449 24.6858 16.1541 24.6858Z" fill="#FDC8BB" stroke="#F74F25" stroke-width="1.37143" stroke-linecap="round" stroke-linejoin="round"/>
<path d="M36.2341 47.8058C36.1895 47.0299 35.9198 46.2838 35.4581 45.6587C34.9964 45.0336 34.3625 44.5565 33.6341 44.2858C31.8249 43.6912 30.2872 42.4707 29.2974 40.8437C28.3076 39.2167 27.9306 37.29 28.2343 35.41C28.538 33.53 29.5024 31.82 30.9542 30.5874C32.4059 29.3548 34.2497 28.6805 36.1541 28.6858H43.6341C44.917 28.6894 46.1819 28.3843 47.3222 27.7965C48.4625 27.2086 49.4447 26.3551 50.186 25.3079C50.9272 24.2608 51.4057 23.0508 51.5812 21.7799C51.7566 20.509 51.6238 19.2146 51.1941 18.0058C49.6031 13.5137 46.8081 9.54521 43.1145 6.53398C39.4209 3.52276 34.9707 1.58461 30.2501 0.931289C25.5296 0.277969 20.7203 0.934611 16.3477 2.82947C11.9751 4.72434 8.20732 7.78453 5.45612 11.6757C2.70492 15.5669 1.07609 20.1393 0.747585 24.8935C0.419083 29.6478 1.40355 34.4008 3.59342 38.6334C5.78329 42.866 9.09432 46.4153 13.1648 48.8935C17.2352 51.3718 21.9085 52.6837 26.6741 52.6858C29.0275 52.6924 31.3703 52.3692 33.6341 51.7258C34.4655 51.4928 35.1855 50.9688 35.6628 50.2492C36.1401 49.5296 36.3428 48.6624 36.2341 47.8058V47.8058Z" stroke="#F74F25" stroke-width="1.37143" stroke-linecap="round" stroke-linejoin="round"/>
</svg>
