<svg width="54" height="42" viewBox="0 0 54 42" fill="none" xmlns="http://www.w3.org/2000/svg">
<path d="M28.9596 32.6001H14.5996V4.6001C14.5996 3.53923 15.021 2.52182 15.7712 1.77167C16.5213 1.02152 17.5387 0.600098 18.5996 0.600098H36.5996C40.8431 0.600098 44.9127 2.28581 47.9133 5.28639C50.9139 8.28697 52.5996 12.3566 52.5996 16.6001V28.6001C52.5996 29.661 52.1782 30.6784 51.428 31.4285C50.6779 32.1787 49.6605 32.6001 48.5996 32.6001H40.2396" fill="#FDC8BB"/>
<path d="M28.9596 32.6001H14.5996V4.6001C14.5996 3.53923 15.021 2.52182 15.7712 1.77167C16.5213 1.02152 17.5387 0.600098 18.5996 0.600098H36.5996C40.8431 0.600098 44.9127 2.28581 47.9133 5.28639C50.9139 8.28697 52.5996 12.3566 52.5996 16.6001V28.6001C52.5996 29.661 52.1782 30.6784 51.428 31.4285C50.6779 32.1787 49.6605 32.6001 48.5996 32.6001H40.2396" stroke="#F74F25" stroke-width="1.2" stroke-linecap="round" stroke-linejoin="round"/>
<path d="M14.5996 32.6001H0.599609V24.6001" fill="#FEEDE9"/>
<path d="M14.5996 32.6001H0.599609V24.6001" stroke="#F74F25" stroke-width="1.2" stroke-linecap="round" stroke-linejoin="round"/>
<path d="M34.5996 40.6001C37.9133 40.6001 40.5996 37.9138 40.5996 34.6001C40.5996 31.2864 37.9133 28.6001 34.5996 28.6001C31.2859 28.6001 28.5996 31.2864 28.5996 34.6001C28.5996 37.9138 31.2859 40.6001 34.5996 40.6001Z" stroke="#F74F25" stroke-width="1.2" stroke-linecap="round" stroke-linejoin="round"/>
<path d="M28.5996 12.6001H40.5996" stroke="#F74F25" stroke-width="1.2" stroke-linecap="round" stroke-linejoin="round"/>
</svg>
