<svg width="16" height="18" viewBox="0 0 16 18" fill="none" xmlns="http://www.w3.org/2000/svg">
<path d="M14.8287 12.8569C14.8287 13.1979 14.6933 13.5249 14.4521 13.766C14.211 14.0071 13.884 14.1426 13.543 14.1426H5.18586C4.84487 14.1426 4.51784 14.0071 4.27672 13.766C4.03561 13.5249 3.90015 13.1979 3.90015 12.8569V1.92829C3.90015 1.5873 4.03561 1.26027 4.27672 1.01916C4.51784 0.778037 4.84487 0.642578 5.18586 0.642578H10.9716L14.8287 4.49972V12.8569Z" stroke="#F74F25" stroke-width="1.37143" stroke-linecap="round" stroke-linejoin="round"/>
<path d="M10.9715 17.3571H1.97151C1.63051 17.3571 1.30349 17.2217 1.06237 16.9806C0.82125 16.7394 0.685791 16.4124 0.685791 16.0714V4.5" stroke="#F74F25" stroke-width="1.37143" stroke-linecap="round" stroke-linejoin="round"/>
</svg>
