<svg width="38" height="39" viewBox="0 0 38 39" fill="none" xmlns="http://www.w3.org/2000/svg">
<path d="M2.08569 0.686035L34.9428 15.6289" stroke="#F74F25" stroke-width="1.37143" stroke-linecap="round" stroke-linejoin="round"/>
<path d="M28.7999 17.9432L34.9428 15.6289L32.6571 9.45752" stroke="#F74F25" stroke-width="1.37143" stroke-linecap="round" stroke-linejoin="round"/>
<path d="M2.11424 16.4004H6.39996C6.77884 16.4004 7.1422 16.5509 7.41011 16.8188C7.67802 17.0867 7.82853 17.4501 7.82853 17.829V37.829H0.685669V17.829C0.685669 17.4501 0.836179 17.0867 1.10409 16.8188C1.372 16.5509 1.73536 16.4004 2.11424 16.4004V16.4004Z" fill="#FDC8BB" stroke="#F74F25" stroke-width="1.37143" stroke-linecap="round" stroke-linejoin="round"/>
<path d="M16.4 20.686H20.6857C21.0646 20.686 21.428 20.8365 21.6959 21.1045C21.9638 21.3724 22.1143 21.7357 22.1143 22.1146V37.8289H14.9714V22.1146C14.9714 21.7357 15.1219 21.3724 15.3899 21.1045C15.6578 20.8365 16.0211 20.686 16.4 20.686V20.686Z" fill="#FDC8BB" stroke="#F74F25" stroke-width="1.37143" stroke-linecap="round" stroke-linejoin="round"/>
<path d="M30.6857 24.9717H34.9714C35.3502 24.9717 35.7136 25.1222 35.9815 25.3901C36.2494 25.658 36.3999 26.0214 36.3999 26.4003V37.8288H29.2571V26.4003C29.2571 26.0214 29.4076 25.658 29.6755 25.3901C29.9434 25.1222 30.3068 24.9717 30.6857 24.9717Z" fill="#FDC8BB" stroke="#F74F25" stroke-width="1.37143" stroke-linecap="round" stroke-linejoin="round"/>
</svg>
