<svg width="52" height="54" viewBox="0 0 52 54" fill="none" xmlns="http://www.w3.org/2000/svg">
<path d="M2.55994 24.7601L48.5599 3.84009" stroke="#F74F25" stroke-width="1.2" stroke-linecap="round" stroke-linejoin="round"/>
<path d="M39.96 0.600098L48.56 3.8401L45.36 12.4401" fill="#FEEDE9"/>
<path d="M39.96 0.600098L48.56 3.8401L45.36 12.4401" stroke="#F74F25" stroke-width="1.2" stroke-linecap="round" stroke-linejoin="round"/>
<path d="M50.6 52.6401H40.6V24.6401C40.6 24.1097 40.8107 23.601 41.1858 23.2259C41.5608 22.8508 42.0695 22.6401 42.6 22.6401H48.6C49.1304 22.6401 49.6391 22.8508 50.0142 23.2259C50.3893 23.601 50.6 24.1097 50.6 24.6401V52.6401Z" fill="#FDC8BB" stroke="#F74F25" stroke-width="1.2" stroke-linecap="round" stroke-linejoin="round"/>
<path d="M30.6 52.6401H20.6L20.6 30.6401C20.6 30.1097 20.8107 29.601 21.1858 29.2259C21.5608 28.8508 22.0695 28.6401 22.6 28.6401H28.6C29.1304 28.6401 29.6391 28.8508 30.0142 29.2259C30.3893 29.601 30.6 30.1097 30.6 30.6401L30.6 52.6401Z" fill="#FDC8BB" stroke="#F74F25" stroke-width="1.2" stroke-linecap="round" stroke-linejoin="round"/>
<path d="M10.6 52.6401H0.599976L0.599976 36.6401C0.599976 36.1097 0.81069 35.601 1.18576 35.2259C1.56084 34.8508 2.06954 34.6401 2.59998 34.6401H8.59998C9.13041 34.6401 9.63912 34.8508 10.0142 35.2259C10.3893 35.601 10.6 36.1097 10.6 36.6401L10.6 52.6401Z" fill="#FDC8BB" stroke="#F74F25" stroke-width="1.2" stroke-linecap="round" stroke-linejoin="round"/>
</svg>
