<svg width="23" height="24" viewBox="0 0 23 24" fill="none" xmlns="http://www.w3.org/2000/svg">
<path d="M1.52576 0.6875L21.24 9.65321" stroke="#F74F25" stroke-width="1.37143" stroke-linecap="round" stroke-linejoin="round"/>
<path d="M17.5543 11.0446L21.24 9.65598L19.8686 5.95312" stroke="#F74F25" stroke-width="1.37143" stroke-linecap="round" stroke-linejoin="round"/>
<path d="M1.54287 10.1172H4.1143C4.34163 10.1172 4.55965 10.2075 4.72039 10.3682C4.88114 10.529 4.97144 10.747 4.97144 10.9743V22.9743H0.68573V10.9743C0.68573 10.747 0.776036 10.529 0.936781 10.3682C1.09753 10.2075 1.31554 10.1172 1.54287 10.1172V10.1172Z" stroke="#F74F25" stroke-width="1.37143" stroke-linecap="round" stroke-linejoin="round"/>
<path d="M10.1143 12.6875H12.6857C12.913 12.6875 13.1311 12.7778 13.2918 12.9386C13.4525 13.0993 13.5429 13.3173 13.5429 13.5446V22.9732H9.25714V13.5446C9.25714 13.3173 9.34745 13.0993 9.50819 12.9386C9.66894 12.7778 9.88696 12.6875 10.1143 12.6875V12.6875Z" stroke="#F74F25" stroke-width="1.37143" stroke-linecap="round" stroke-linejoin="round"/>
<path d="M18.6858 15.2578H21.2572C21.4845 15.2578 21.7025 15.3481 21.8633 15.5089C22.024 15.6696 22.1143 15.8876 22.1143 16.115V22.9721H17.8286V16.115C17.8286 15.8876 17.9189 15.6696 18.0797 15.5089C18.2404 15.3481 18.4584 15.2578 18.6858 15.2578Z" stroke="#F74F25" stroke-width="1.37143" stroke-linecap="round" stroke-linejoin="round"/>
</svg>
