<svg width="55" height="55" viewBox="0 0 55 55" fill="none" xmlns="http://www.w3.org/2000/svg">
<path d="M24.1316 2.82832L13.7796 13.1804C12.2175 14.7425 12.2175 17.2751 13.7796 18.8372L35.4453 40.503C37.0074 42.0651 39.5401 42.0651 41.1022 40.503L51.4542 30.1509C53.0163 28.5888 53.0163 26.0562 51.4542 24.4941L29.7885 2.82832C28.2264 1.26622 25.6937 1.26622 24.1316 2.82832Z" fill="#FDC8BB" stroke="#F74F25" stroke-width="1.2" stroke-linecap="round" stroke-linejoin="round"/>
<path d="M2.25646 44.031C1.1956 45.0919 0.599609 46.5307 0.599609 48.031C0.599609 49.5313 1.1956 50.9702 2.25646 52.031C3.31733 53.0919 4.75617 53.6879 6.25646 53.6879C7.75675 53.6879 9.1956 53.0919 10.2565 52.031L28.6165 33.671L20.6165 25.671L2.25646 44.031Z" fill="#FEEDE9" stroke="#F74F25" stroke-width="1.2" stroke-linecap="round" stroke-linejoin="round"/>
</svg>
