<svg width="40" height="40" viewBox="0 0 40 40" fill="none" xmlns="http://www.w3.org/2000/svg">
<path d="M36.1329 28.2661L30.9162 16.0827C29.1495 11.9494 25.8995 11.7827 23.7162 15.7161L20.5662 21.3994C18.9662 24.2827 15.9829 24.5327 13.9162 21.9494L13.5496 21.4827C11.3996 18.7827 8.36622 19.1161 6.81622 22.1994L3.94955 27.9494C1.93288 31.9494 4.84955 36.6661 9.31622 36.6661H30.5829C34.9162 36.6661 37.8329 32.2494 36.1329 28.2661Z" stroke="#1D1D1D" stroke-width="2.5" stroke-linecap="round" stroke-linejoin="round"/>
<path d="M11.6162 13.334C14.3776 13.334 16.6162 11.0954 16.6162 8.33398C16.6162 5.57256 14.3776 3.33398 11.6162 3.33398C8.85479 3.33398 6.61621 5.57256 6.61621 8.33398C6.61621 11.0954 8.85479 13.334 11.6162 13.334Z" stroke="#1D1D1D" stroke-width="2.5" stroke-linecap="round" stroke-linejoin="round"/>
</svg>
