<svg width="39" height="39" viewBox="0 0 39 39" fill="none" xmlns="http://www.w3.org/2000/svg">
<path d="M19.2573 0.685547V12.1141" stroke="#F74F25" stroke-width="1.37143" stroke-linecap="round" stroke-linejoin="round"/>
<path d="M23.543 30.6855H30.6858" stroke="#F74F25" stroke-width="1.37143" stroke-linecap="round" stroke-linejoin="round"/>
<path d="M0.685852 12.1143H37.8287V34.9714C37.8287 35.7292 37.5277 36.4559 36.9919 36.9917C36.4561 37.5275 35.7293 37.8285 34.9716 37.8285H3.543C2.78523 37.8285 2.05851 37.5275 1.52269 36.9917C0.986872 36.4559 0.685852 35.7292 0.685852 34.9714V12.1143Z" fill="#FDC8BB" stroke="#F74F25" stroke-width="1.37143" stroke-linecap="round" stroke-linejoin="round"/>
<path d="M0.685852 12.1141L4.97157 3.85698C5.43359 2.92632 6.14062 2.13925 7.01659 1.58045C7.89256 1.02164 8.90431 0.712244 9.943 0.685547H28.5716C29.6347 0.686111 30.6765 0.983227 31.58 1.54349C32.4835 2.10375 33.2128 2.90494 33.6859 3.85698L37.8287 12.1141" stroke="#F74F25" stroke-width="1.37143" stroke-linecap="round" stroke-linejoin="round"/>
</svg>
