<svg width="39" height="39" viewBox="0 0 39 39" fill="none" xmlns="http://www.w3.org/2000/svg">
<path d="M3.5429 37.8281L34.9715 37.8281C36.5494 37.8281 37.8286 36.5489 37.8286 34.971L37.8286 3.54241C37.8286 1.96445 36.5494 0.685265 34.9715 0.685265L3.5429 0.685265C1.96494 0.685265 0.685753 1.96445 0.685753 3.54241L0.685753 34.971C0.685753 36.5489 1.96494 37.8281 3.5429 37.8281Z" stroke="#F74F25" stroke-width="1.37143" stroke-linecap="round" stroke-linejoin="round"/>
<path d="M0.685791 30.6855H37.8287" stroke="#F74F25" stroke-width="1.37143" stroke-linecap="round" stroke-linejoin="round"/>
<path d="M10.2288 30.6859L25.1145 16.743C25.3712 16.5292 25.6947 16.4121 26.0288 16.4121C26.3628 16.4121 26.6863 16.5292 26.943 16.743L37.8288 24.543" stroke="#F74F25" stroke-width="1.37143" stroke-linecap="round" stroke-linejoin="round"/>
<path d="M12.1143 16.3996C14.4813 16.3996 16.4 14.4808 16.4 12.1138C16.4 9.7469 14.4813 7.82812 12.1143 7.82812C9.74739 7.82812 7.82861 9.7469 7.82861 12.1138C7.82861 14.4808 9.74739 16.3996 12.1143 16.3996Z" stroke="#F74F25" stroke-width="1.37143" stroke-linecap="round" stroke-linejoin="round"/>
</svg>
