<svg width="16" height="16" viewBox="0 0 16 16" fill="none" xmlns="http://www.w3.org/2000/svg">
<g clip-path="url(#clip0_374_59343)">
<path d="M11.12 8.74395L14.8571 6.33252C15.0027 6.24424 15.1267 6.12455 15.2201 5.9822C15.3135 5.83985 15.3739 5.67844 15.3969 5.50976C15.4199 5.34107 15.4049 5.16938 15.353 5.00723C15.3012 4.84508 15.2138 4.69656 15.0971 4.57252L11.4286 0.903951C11.3045 0.78734 11.156 0.699913 10.9939 0.648057C10.8317 0.596202 10.66 0.581228 10.4913 0.60423C10.3227 0.627232 10.1612 0.687629 10.0189 0.781008C9.87655 0.874386 9.75686 0.998388 9.66857 1.14395L7.2 4.83538L2.06857 5.97824C1.95123 6.00671 1.84348 6.06567 1.75623 6.14914C1.66898 6.23262 1.60532 6.33765 1.57169 6.45363C1.53806 6.5696 1.53565 6.6924 1.5647 6.8096C1.59375 6.9268 1.65324 7.03426 1.73715 7.12109L8.76572 14.1611C8.85468 14.2416 8.96293 14.2978 9.07997 14.3242C9.19701 14.3506 9.3189 14.3464 9.43383 14.3119C9.54876 14.2775 9.65284 14.2139 9.73601 14.1274C9.81918 14.0409 9.87862 13.9344 9.90857 13.8182L11.12 8.74395Z" stroke="#F74F25" stroke-width="1.37143" stroke-linecap="round" stroke-linejoin="round"/>
<path d="M5.2457 10.7227L0.571411 15.4312" stroke="#F74F25" stroke-width="1.37143" stroke-linecap="round" stroke-linejoin="round"/>
</g>
<defs>
<clipPath id="clip0_374_59343">
<rect width="16" height="16" fill="white"/>
</clipPath>
</defs>
</svg>
