<svg width="24" height="24" viewBox="0 0 24 24" fill="none" xmlns="http://www.w3.org/2000/svg">
<path d="M4.54269 15.6869C6.67293 15.6869 8.39983 13.96 8.39983 11.8298C8.39983 9.69956 6.67293 7.97266 4.54269 7.97266C2.41245 7.97266 0.685547 9.69956 0.685547 11.8298C0.685547 13.96 2.41245 15.6869 4.54269 15.6869Z" stroke="#9AA4B2" stroke-width="1.37143" stroke-linecap="round" stroke-linejoin="round"/>
<path d="M19.114 22.9721C21.2442 22.9721 22.9711 21.2452 22.9711 19.115C22.9711 16.9847 21.2442 15.2578 19.114 15.2578C16.9837 15.2578 15.2568 16.9847 15.2568 19.115C15.2568 21.2452 16.9837 22.9721 19.114 22.9721Z" stroke="#9AA4B2" stroke-width="1.37143" stroke-linecap="round" stroke-linejoin="round"/>
<path d="M19.114 8.40179C21.2442 8.40179 22.9711 6.67488 22.9711 4.54464C22.9711 2.4144 21.2442 0.6875 19.114 0.6875C16.9837 0.6875 15.2568 2.4144 15.2568 4.54464C15.2568 6.67488 16.9837 8.40179 19.114 8.40179Z" stroke="#9AA4B2" stroke-width="1.37143" stroke-linecap="round" stroke-linejoin="round"/>
<path d="M7.98828 10.115L15.6683 6.25781" stroke="#9AA4B2" stroke-width="1.37143" stroke-linecap="round" stroke-linejoin="round"/>
<path d="M7.98828 13.543L15.6683 17.4001" stroke="#9AA4B2" stroke-width="1.37143" stroke-linecap="round" stroke-linejoin="round"/>
</svg>
