<svg width="22" height="24" viewBox="0 0 22 24" fill="none" xmlns="http://www.w3.org/2000/svg">
<path d="M20.8562 21.0687C20.8832 21.3092 20.859 21.5527 20.7851 21.7831C20.7113 22.0136 20.5894 22.2258 20.4277 22.4058C20.2655 22.5856 20.067 22.7289 19.8454 22.8264C19.6238 22.9239 19.3841 22.9734 19.142 22.9715H2.41053C2.16843 22.9734 1.92868 22.9239 1.70707 22.8264C1.48547 22.7289 1.28703 22.5856 1.12482 22.4058C0.963044 22.2258 0.841216 22.0136 0.767349 21.7831C0.693482 21.5527 0.669249 21.3092 0.696247 21.0687L2.20482 7.54297H19.3477L20.8562 21.0687Z" stroke="#F74F25" stroke-width="1.37143" stroke-linecap="round" stroke-linejoin="round"/>
<path d="M6.49121 7.54269V4.97126C6.49121 3.83462 6.94274 2.74453 7.74647 1.9408C8.55019 1.13708 9.64028 0.685547 10.7769 0.685547C11.9136 0.685547 13.0037 1.13708 13.8074 1.9408C14.6111 2.74453 15.0626 3.83462 15.0626 4.97126V7.54269" stroke="#F74F25" stroke-width="1.37143" stroke-linecap="round" stroke-linejoin="round"/>
</svg>
