<svg width="54" height="51" viewBox="0 0 54 51" fill="none" xmlns="http://www.w3.org/2000/svg">
<path d="M28.5524 1.85223L34.9124 14.6922C35.0571 15.0181 35.2846 15.3004 35.5724 15.511C35.8601 15.7215 36.198 15.853 36.5524 15.8922L50.5924 17.9722C50.9989 18.0245 51.3822 18.1913 51.6975 18.4533C52.0127 18.7152 52.2469 19.0614 52.3727 19.4515C52.4986 19.8416 52.5108 20.2594 52.4081 20.6562C52.3053 21.0529 52.0918 21.4123 51.7924 21.6922L41.6724 31.7322C41.4141 31.9735 41.2203 32.2756 41.1085 32.6109C40.9967 32.9463 40.9706 33.3042 41.0324 33.6522L43.4724 47.7722C43.5431 48.178 43.4984 48.5954 43.3435 48.977C43.1887 49.3586 42.9298 49.689 42.5964 49.9308C42.2629 50.1725 41.8684 50.3158 41.4575 50.3443C41.0467 50.3729 40.6361 50.2855 40.2724 50.0922L27.6324 43.4122C27.3088 43.2533 26.953 43.1707 26.5924 43.1707C26.2319 43.1707 25.8761 43.2533 25.5524 43.4122L12.9124 50.0922C12.5488 50.2855 12.1382 50.3729 11.7273 50.3443C11.3165 50.3158 10.9219 50.1725 10.5885 49.9308C10.2551 49.689 9.99618 49.3586 9.8413 48.977C9.68643 48.5954 9.64177 48.178 9.71242 47.7722L12.1524 33.4922C12.2143 33.1442 12.1881 32.7863 12.0763 32.4509C11.9645 32.1156 11.7707 31.8135 11.5124 31.5722L1.27242 21.6922C0.969468 21.4046 0.756417 21.0353 0.659074 20.6291C0.561731 20.2229 0.584271 19.7971 0.723966 19.4034C0.86366 19.0097 1.11451 18.665 1.44614 18.411C1.77777 18.157 2.17594 18.0046 2.59242 17.9722L16.6324 15.8922C16.9868 15.853 17.3247 15.7215 17.6125 15.511C17.9002 15.3004 18.1278 15.0181 18.2724 14.6922L24.6324 1.85223C24.8056 1.47827 25.0822 1.16165 25.4295 0.939766C25.7768 0.717878 26.1803 0.599976 26.5924 0.599976C27.0045 0.599976 27.4081 0.717878 27.7554 0.939766C28.1027 1.16165 28.3792 1.47827 28.5524 1.85223V1.85223Z" fill="#FDC8BB" stroke="#F74F25" stroke-width="1.2" stroke-linecap="round" stroke-linejoin="round"/>
</svg>
