<svg width="24" height="23" viewBox="0 0 24 23" fill="none" xmlns="http://www.w3.org/2000/svg">
<path d="M12.6653 1.22241L15.391 6.72527C15.453 6.86494 15.5505 6.98592 15.6739 7.07616C15.7972 7.16639 15.942 7.22273 16.0939 7.23955L22.111 8.13098C22.2853 8.15338 22.4495 8.22488 22.5846 8.33713C22.7197 8.44939 22.8201 8.59777 22.874 8.76495C22.928 8.93212 22.9332 9.11119 22.8892 9.28123C22.8451 9.45128 22.7536 9.60529 22.6253 9.72527L18.2882 14.0281C18.1775 14.1315 18.0944 14.261 18.0465 14.4047C17.9986 14.5484 17.9874 14.7018 18.0139 14.851L19.0596 20.9024C19.0899 21.0763 19.0707 21.2552 19.0044 21.4187C18.938 21.5823 18.827 21.7239 18.6842 21.8275C18.5413 21.9311 18.3722 21.9925 18.1961 22.0047C18.02 22.017 17.844 21.9795 17.6882 21.8967L12.271 19.0338C12.1323 18.9657 11.9798 18.9303 11.8253 18.9303C11.6708 18.9303 11.5183 18.9657 11.3796 19.0338L5.96246 21.8967C5.80662 21.9795 5.63064 22.017 5.45457 22.0047C5.27849 21.9925 5.10939 21.9311 4.96649 21.8275C4.82359 21.7239 4.71265 21.5823 4.64627 21.4187C4.5799 21.2552 4.56076 21.0763 4.59104 20.9024L5.63675 14.7824C5.66325 14.6333 5.65204 14.4799 5.60414 14.3361C5.55623 14.1924 5.47316 14.063 5.36246 13.9596L0.973893 9.72527C0.844058 9.602 0.75275 9.44374 0.711032 9.26964C0.669313 9.09554 0.678973 8.91307 0.738843 8.74435C0.798712 8.57563 0.90622 8.42789 1.04835 8.31902C1.19047 8.21016 1.36112 8.14484 1.53961 8.13098L7.55675 7.23955C7.70863 7.22273 7.85345 7.16639 7.97677 7.07616C8.1001 6.98592 8.19762 6.86494 8.25961 6.72527L10.9853 1.22241C11.0595 1.06214 11.1781 0.926449 11.3269 0.831354C11.4758 0.736259 11.6487 0.68573 11.8253 0.68573C12.0019 0.68573 12.1749 0.736259 12.3237 0.831354C12.4726 0.926449 12.5911 1.06214 12.6653 1.22241V1.22241Z" fill="#FDC8BB" stroke="#F74F25" stroke-width="1.37143" stroke-linecap="round" stroke-linejoin="round"/>
</svg>
