<svg width="54" height="54" viewBox="0 0 54 54" fill="none" xmlns="http://www.w3.org/2000/svg">
<path d="M51.7245 36.165L36.1645 51.725C35.602 52.2868 34.8395 52.6024 34.0445 52.6024C33.2495 52.6024 32.487 52.2868 31.9245 51.725L1.04454 20.845C0.889381 20.6967 0.769343 20.5156 0.693213 20.3148C0.617084 20.1141 0.586788 19.899 0.604544 19.685L2.96454 4.36503C2.9838 3.99997 3.13748 3.65496 3.39597 3.39646C3.65447 3.13797 3.99949 2.98429 4.36454 2.96503L19.6845 0.605033C19.8985 0.587277 20.1137 0.617572 20.3144 0.693701C20.5151 0.769831 20.6962 0.889869 20.8445 1.04503L51.7245 31.925C52.2863 32.4875 52.6019 33.25 52.6019 34.045C52.6019 34.84 52.2863 35.6025 51.7245 36.165V36.165Z" fill="#FDC8BB" stroke="#F74F25" stroke-width="1.2" stroke-linecap="round" stroke-linejoin="round"/>
<path d="M15.0449 17.0449C16.1495 17.0449 17.0449 16.1495 17.0449 15.0449C17.0449 13.9404 16.1495 13.0449 15.0449 13.0449C13.9404 13.0449 13.0449 13.9404 13.0449 15.0449C13.0449 16.1495 13.9404 17.0449 15.0449 17.0449Z" fill="#FEEDE9" stroke="#F74F25" stroke-width="1.2" stroke-linecap="round" stroke-linejoin="round"/>
</svg>
