<svg width="20" height="20" viewBox="0 0 20 20" fill="none" xmlns="http://www.w3.org/2000/svg">
<path d="M17.8284 0.685715H2.11412C1.32514 0.685715 0.685547 1.32531 0.685547 2.11429V17.8286C0.685547 18.6176 1.32514 19.2571 2.11412 19.2571H17.8284C18.6174 19.2571 19.257 18.6176 19.257 17.8286V2.11429C19.257 1.32531 18.6174 0.685715 17.8284 0.685715Z" stroke="white" stroke-width="1.37143" stroke-linecap="round" stroke-linejoin="round"/>
<path d="M7.44336 13.1572V6.9858C7.4439 6.88255 7.47172 6.78127 7.52402 6.69223C7.57631 6.60319 7.65121 6.52956 7.74113 6.4788C7.83105 6.42804 7.93279 6.40195 8.03605 6.40318C8.1393 6.40441 8.24039 6.43291 8.32907 6.4858L13.6148 9.55723C13.7038 9.60865 13.7777 9.68259 13.8291 9.77161C13.8804 9.86063 13.9075 9.9616 13.9075 10.0644C13.9075 10.1672 13.8804 10.2681 13.8291 10.3571C13.7777 10.4462 13.7038 10.5201 13.6148 10.5715L8.32907 13.6572C8.24039 13.7101 8.1393 13.7386 8.03605 13.7399C7.93279 13.7411 7.83105 13.715 7.74113 13.6642C7.65121 13.6135 7.57631 13.5398 7.52402 13.4508C7.47172 13.3618 7.4439 13.2605 7.44336 13.1572V13.1572Z" stroke="white" stroke-width="1.37143" stroke-linecap="round" stroke-linejoin="round"/>
</svg>
