<svg width="24" height="24" viewBox="0 0 24 24" fill="none" xmlns="http://www.w3.org/2000/svg">
<path d="M11.1426 12.8574V23.1431" stroke="#202939" stroke-width="2.05714" stroke-linecap="round" stroke-linejoin="round"/>
<path d="M7.71387 16.286L11.1424 12.8574L14.571 16.286" stroke="#202939" stroke-width="2.05714" stroke-linecap="round" stroke-linejoin="round"/>
<path d="M20.5712 13.8866C21.208 13.5192 21.7586 13.0195 22.1859 12.4213C22.6132 11.8231 22.9073 11.1403 23.0483 10.4188C23.1894 9.69729 23.1741 8.95395 23.0036 8.23886C22.833 7.52377 22.5111 6.85356 22.0596 6.27341C21.6081 5.69325 21.0375 5.21664 20.3862 4.87569C19.7349 4.53475 19.018 4.3374 18.284 4.29695C17.55 4.2565 16.8158 4.37389 16.131 4.6412C15.4462 4.90851 14.8266 5.31954 14.3141 5.84657C13.8647 4.252 12.8531 2.87406 11.4665 1.96746C10.0799 1.06087 8.41194 0.686938 6.77099 0.914789C5.13004 1.14264 3.62706 1.95687 2.5399 3.20696C1.45274 4.45704 0.854916 6.05845 0.856939 7.71514C0.858154 9.27364 1.39023 10.7852 2.36551 12.0009" stroke="#0D0D0D" stroke-width="2.05714" stroke-linecap="round" stroke-linejoin="round"/>
</svg>
