<svg width="54" height="50" viewBox="0 0 54 50" fill="none" xmlns="http://www.w3.org/2000/svg">
<path d="M18.6 18.6001C23.5706 18.6001 27.6 14.5707 27.6 9.6001C27.6 4.62953 23.5706 0.600098 18.6 0.600098C13.6294 0.600098 9.60001 4.62953 9.60001 9.6001C9.60001 14.5707 13.6294 18.6001 18.6 18.6001Z" stroke="#F74F25" stroke-width="1.2" stroke-linecap="round" stroke-linejoin="round"/>
<path d="M36.6 48.6001H0.600006V44.6001C0.600006 39.8262 2.49643 35.2478 5.87208 31.8722C9.24774 28.4965 13.8261 26.6001 18.6 26.6001C23.3739 26.6001 27.9523 28.4965 31.3279 31.8722C34.7036 35.2478 36.6 39.8262 36.6 44.6001V48.6001Z" fill="#FDC8BB" stroke="#F74F25" stroke-width="1.2" stroke-linecap="round" stroke-linejoin="round"/>
<path d="M34.6 0.600098C36.9869 0.600098 39.2761 1.54831 40.9639 3.23614C42.6518 4.92396 43.6 7.21315 43.6 9.6001C43.6 11.987 42.6518 14.2762 40.9639 15.9641C39.2761 17.6519 36.9869 18.6001 34.6 18.6001" stroke="#F74F25" stroke-width="1.2" stroke-linecap="round" stroke-linejoin="round"/>
<path d="M40.9984 27.3599C44.4058 28.6561 47.3392 30.9563 49.4106 33.9562C51.4819 36.9561 52.5936 40.5143 52.5984 44.1599V48.5999H46.5984" stroke="#F74F25" stroke-width="1.2" stroke-linecap="round" stroke-linejoin="round"/>
</svg>
