<svg width="24" height="22" viewBox="0 0 24 22" fill="none" xmlns="http://www.w3.org/2000/svg">
<path d="M8.4 8.40179C10.5302 8.40179 12.2571 6.67488 12.2571 4.54464C12.2571 2.4144 10.5302 0.6875 8.4 0.6875C6.26976 0.6875 4.54285 2.4144 4.54285 4.54464C4.54285 6.67488 6.26976 8.40179 8.4 8.40179Z" stroke="#F74F25" stroke-width="1.37143" stroke-linecap="round" stroke-linejoin="round"/>
<path d="M16.1143 21.2606H0.685715V19.5463C0.685715 17.5004 1.49847 15.5382 2.94518 14.0915C4.39189 12.6448 6.35404 11.832 8.4 11.832C10.446 11.832 12.4081 12.6448 13.8548 14.0915C15.3015 15.5382 16.1143 17.5004 16.1143 19.5463V21.2606Z" stroke="#F74F25" stroke-width="1.37143" stroke-linecap="round" stroke-linejoin="round"/>
<path d="M15.2571 0.6875C16.2801 0.6875 17.2612 1.09388 17.9846 1.81723C18.7079 2.54059 19.1143 3.52167 19.1143 4.54464C19.1143 5.56762 18.7079 6.5487 17.9846 7.27205C17.2612 7.99541 16.2801 8.40179 15.2571 8.40179" stroke="#F74F25" stroke-width="1.37143" stroke-linecap="round" stroke-linejoin="round"/>
<path d="M17.9993 12.1562C19.4596 12.7118 20.7168 13.6976 21.6045 14.9833C22.4923 16.2689 22.9687 17.7939 22.9708 19.3563V21.2591H20.3993" stroke="#F74F25" stroke-width="1.37143" stroke-linecap="round" stroke-linejoin="round"/>
</svg>
