<svg width="54" height="42" viewBox="0 0 54 42" fill="none" xmlns="http://www.w3.org/2000/svg">
<path d="M10.5996 12.5508H4.59961C3.53874 12.5508 2.52133 12.9722 1.77118 13.7224C1.02104 14.4725 0.599609 15.4899 0.599609 16.5508V24.5508C0.599609 25.6116 1.02104 26.6291 1.77118 27.3792C2.52133 28.1294 3.53874 28.5508 4.59961 28.5508H10.5996V12.5508Z" fill="#FDC8BB" stroke="#F74F25" stroke-width="1.2" stroke-linecap="round" stroke-linejoin="round"/>
<path d="M10.5996 28.5507L26.2396 39.7907C26.8191 40.1917 27.4942 40.4324 28.1966 40.4886C28.899 40.5448 29.6038 40.4144 30.2396 40.1107C30.9292 39.801 31.5169 39.3022 31.9345 38.6721C32.3522 38.042 32.5828 37.3065 32.5996 36.5507V4.55071C32.6167 3.83239 32.44 3.12272 32.0881 2.49629C31.7362 1.86985 31.222 1.34977 30.5996 0.990714C29.9638 0.687001 29.259 0.556645 28.5566 0.612838C27.8542 0.66903 27.1791 0.909778 26.5996 1.31071L10.5996 12.5507" fill="#FEEDE9"/>
<path d="M10.5996 28.5507L26.2396 39.7907C26.8191 40.1917 27.4942 40.4324 28.1966 40.4886C28.899 40.5448 29.6038 40.4144 30.2396 40.1107C30.9292 39.801 31.5169 39.3022 31.9345 38.6721C32.3522 38.042 32.5828 37.3065 32.5996 36.5507V4.55071C32.6167 3.83239 32.44 3.12272 32.0881 2.49629C31.7362 1.86985 31.222 1.34977 30.5996 0.990714C29.9638 0.687001 29.259 0.556645 28.5566 0.612838C27.8542 0.66903 27.1791 0.909778 26.5996 1.31071L10.5996 12.5507" stroke="#F74F25" stroke-width="1.2" stroke-linecap="round" stroke-linejoin="round"/>
<path d="M48.5996 8.55078C51.3808 11.9131 52.8071 16.1922 52.5996 20.5508C52.5395 25.4908 51.1584 30.3247 48.5996 34.5508" stroke="#F74F25" stroke-width="1.2" stroke-linecap="round" stroke-linejoin="round"/>
<path d="M40.5996 14.5508C41.9902 16.2319 42.7034 18.3715 42.5996 20.5508C42.7034 22.7301 41.9902 24.8696 40.5996 26.5508" stroke="#F74F25" stroke-width="1.2" stroke-linecap="round" stroke-linejoin="round"/>
</svg>
