<svg width="103" height="47" viewBox="0 0 103 47" fill="none" xmlns="http://www.w3.org/2000/svg">
<circle cx="23.5" cy="23.5" r="23.5" fill="#F74F25"/>
<path d="M60.184 29.5V18.14H62.616V28.844L61.272 27.452H67.848V29.5H60.184ZM73.4468 29.756C72.2948 29.756 71.3028 29.516 70.4708 29.036C69.6494 28.556 69.0148 27.8733 68.5668 26.988C68.1294 26.1027 67.9108 25.052 67.9108 23.836C67.9108 22.62 68.1294 21.5693 68.5668 20.684C69.0148 19.788 69.6494 19.1 70.4708 18.62C71.3028 18.1293 72.2948 17.884 73.4468 17.884C74.5988 17.884 75.5854 18.1293 76.4068 18.62C77.2388 19.1 77.8734 19.788 78.3108 20.684C78.7588 21.5693 78.9828 22.62 78.9828 23.836C78.9828 25.052 78.7588 26.1027 78.3108 26.988C77.8734 27.8733 77.2388 28.556 76.4068 29.036C75.5854 29.516 74.5988 29.756 73.4468 29.756ZM73.4308 27.708C74.0708 27.708 74.6148 27.5587 75.0628 27.26C75.5214 26.9507 75.8681 26.508 76.1028 25.932C76.3481 25.356 76.4708 24.6573 76.4708 23.836C76.4708 23.0147 76.3481 22.316 76.1028 21.74C75.8681 21.1533 75.5214 20.7053 75.0628 20.396C74.6148 20.0867 74.0708 19.932 73.4308 19.932C72.8014 19.932 72.2628 20.0867 71.8148 20.396C71.3668 20.7053 71.0201 21.1533 70.7748 21.74C70.5401 22.316 70.4228 23.0147 70.4228 23.836C70.4228 24.6573 70.5401 25.356 70.7748 25.932C71.0201 26.508 71.3668 26.9507 71.8148 27.26C72.2734 27.5587 72.8121 27.708 73.4308 27.708ZM85.1006 29.756C84.002 29.756 83.0633 29.5053 82.2846 29.004C81.506 28.5027 80.9033 27.8093 80.4766 26.924C80.0606 26.028 79.8526 24.9987 79.8526 23.836C79.8526 22.6947 80.066 21.676 80.4926 20.78C80.9193 19.884 81.5326 19.18 82.3326 18.668C83.1433 18.1453 84.114 17.884 85.2446 17.884C86.226 17.884 87.0526 18.0493 87.7246 18.38C88.4073 18.7 88.9513 19.1587 89.3566 19.756C89.762 20.3533 90.0446 21.0573 90.2046 21.868L87.6926 21.98C87.5753 21.3507 87.3246 20.8547 86.9406 20.492C86.5673 20.1187 86.0073 19.932 85.2606 19.932C84.61 19.932 84.066 20.1027 83.6286 20.444C83.202 20.7853 82.882 21.2493 82.6686 21.836C82.466 22.4227 82.3646 23.0893 82.3646 23.836C82.3646 24.5933 82.466 25.2653 82.6686 25.852C82.882 26.428 83.202 26.8813 83.6286 27.212C84.066 27.5427 84.626 27.708 85.3086 27.708C85.81 27.708 86.242 27.6067 86.6046 27.404C86.978 27.2013 87.266 26.924 87.4686 26.572C87.682 26.22 87.81 25.82 87.8526 25.372H85.2606V23.596H90.2366V29.5H88.7326L88.6046 27.068L88.8926 27.196C88.786 27.6973 88.5513 28.14 88.1886 28.524C87.826 28.908 87.378 29.212 86.8446 29.436C86.322 29.6493 85.7406 29.756 85.1006 29.756ZM96.7211 29.756C95.5691 29.756 94.5771 29.516 93.7451 29.036C92.9238 28.556 92.2891 27.8733 91.8411 26.988C91.4038 26.1027 91.1851 25.052 91.1851 23.836C91.1851 22.62 91.4038 21.5693 91.8411 20.684C92.2891 19.788 92.9238 19.1 93.7451 18.62C94.5771 18.1293 95.5691 17.884 96.7211 17.884C97.8731 17.884 98.8598 18.1293 99.6811 18.62C100.513 19.1 101.148 19.788 101.585 20.684C102.033 21.5693 102.257 22.62 102.257 23.836C102.257 25.052 102.033 26.1027 101.585 26.988C101.148 27.8733 100.513 28.556 99.6811 29.036C98.8598 29.516 97.8731 29.756 96.7211 29.756ZM96.7051 27.708C97.3451 27.708 97.8891 27.5587 98.3371 27.26C98.7958 26.9507 99.1425 26.508 99.3771 25.932C99.6225 25.356 99.7451 24.6573 99.7451 23.836C99.7451 23.0147 99.6225 22.316 99.3771 21.74C99.1425 21.1533 98.7958 20.7053 98.3371 20.396C97.8891 20.0867 97.3451 19.932 96.7051 19.932C96.0758 19.932 95.5371 20.0867 95.0891 20.396C94.6411 20.7053 94.2945 21.1533 94.0491 21.74C93.8145 22.316 93.6971 23.0147 93.6971 23.836C93.6971 24.6573 93.8145 25.356 94.0491 25.932C94.2945 26.508 94.6411 26.9507 95.0891 27.26C95.5478 27.5587 96.0865 27.708 96.7051 27.708Z" fill="#F74F25"/>
</svg>
